<svg id="Layer_1" data-name="Layer 1" xmlns="http://www.w3.org/2000/svg" viewBox="0 0 444.57 86.43"><defs><style>.cls-1{fill:#f15a29;}.cls-2{fill:none;stroke:#000;stroke-width:0.3px;}</style></defs><path class="cls-1" d="M307.57,185.81Q286.3,216,265,246.31a61.91,61.91,0,0,1-20.11,18.5c-8.26,4.78-16.55,7.18-24.37,7.2-9.43,0-13.19-3.94-10.4-11.88a95.1,95.1,0,0,1-18.29,9.2,47.73,47.73,0,0,1-15.68,2.78c-8.17,0-11.86-2.36-10.59-7.14s7.34-11.68,17.87-20.67q34.32-29.36,68.64-58.62l15.33,0q-28.55,27.35-57.1,54.79a35,35,0,0,0-5,5.37c-.49.87-.1,1.3,1.16,1.3q3.56,0,9.8-6.25,27.75-27.65,55.5-55.2l16.06,0q-23.79,27.31-47.6,54.71c-2.29,2.63-3.62,4.4-4,5.31s.09,1.35,1.34,1.35q3.52,0,9.05-6.67,22.79-27.37,45.56-54.69Z" transform="translate(-165.33 -185.68)"/><path class="cls-1" d="M324.61,243.06l-33,0a21.57,21.57,0,0,1,2.05-4.94,36,36,0,0,1,4.46-6.12H308.5c1.56-4.62.57-6.93-3.06-6.93-2.43,0-5.1,1.24-8.1,3.72a36.1,36.1,0,0,0-8,9.52c-2.4,4-3.53,7.31-3.28,9.81s1.83,3.74,4.64,3.74c2.28,0,5.11-1.17,8.37-3.51a134.18,134.18,0,0,0,5.8,16c-8.6,4.88-17.37,7.33-25.58,7.35-10,0-16.68-3.06-19-9.27s.23-13.89,6.84-23.07a97.34,97.34,0,0,1,24.14-23.13c9.23-6.29,16.77-9.42,23.57-9.42s10.64,3.08,12.89,9.21,2.11,13.69-1.24,22.67C326.13,239.61,325.51,241.07,324.61,243.06Z" transform="translate(-165.33 -185.68)"/><path class="cls-1" d="M360.13,185.93Q349.32,228,338.5,270.11l-32.62.07q17.64-42.18,35.27-84.29Z" transform="translate(-165.33 -185.68)"/><path class="cls-1" d="M380.57,241.63l21-.87c0,8.81-2.72,16.05-8.82,21.73s-14.13,8.54-23.36,8.56c-9.77,0-17.61-3.09-22.59-9.33s-5.79-13.92-3.28-23a49,49,0,0,1,13.51-22.14c6.35-6.13,12.3-9.19,18.78-9.18,5.67,0,10.47,2.42,15.07,7.23a39.23,39.23,0,0,1,9.69,18.42l-20.51.87c-1.62-2.61-3.69-3.92-6.33-3.92a8.07,8.07,0,0,0-5.92,2.58,11.36,11.36,0,0,0-3.18,6.49,8.23,8.23,0,0,0,1.52,6.68,7.33,7.33,0,0,0,6,2.69C376,248.44,378.81,246.17,380.57,241.63Z" transform="translate(-165.33 -185.68)"/><path class="cls-1" d="M423.7,207.44c6.43,0,12.76,3.12,19.94,9.32a60.38,60.38,0,0,1,16.57,22.3c3.65,8.78,3.8,16.26-.46,22.45s-11.64,9.3-21.27,9.33a38.69,38.69,0,0,1-25.75-9.27,30.82,30.82,0,0,1-11.25-22.46,34.47,34.47,0,0,1,6-22.54C411.75,210.48,416.86,207.43,423.7,207.44ZM428.64,230a5.45,5.45,0,0,0-4.86,2.66,8.64,8.64,0,0,0-1,6.51,11.17,11.17,0,0,0,3.71,6.47,9.67,9.67,0,0,0,6.54,2.69,6,6,0,0,0,5.32-2.7,7.56,7.56,0,0,0,.61-6.47,13.45,13.45,0,0,0-4.13-6.5A9.22,9.22,0,0,0,428.64,230Z" transform="translate(-165.33 -185.68)"/><path class="cls-1" d="M560.57,269.63l-25.09.05Q523.57,253.35,511.67,237a32.38,32.38,0,0,0-4.45-5.23,5.18,5.18,0,0,0-3.37-1.46q-3.08,0,1.57,6.75L528,269.7l-25.09.05L484.39,237a24.19,24.19,0,0,0-3.62-5.24,4.42,4.42,0,0,0-3.15-1.46q-3,0,.51,6.76,8.6,16.37,17.2,32.7l-25.09.06-15-37.44c-2.72-6.83-3.06-12.64-1.54-17.42s4.47-7.16,9.35-7.15c5,0,11.1,2.85,18.92,8.54,1.19-5.69,3.59-8.52,8.06-8.52,5.67,0,12.29,2.77,20.49,8.28a103.91,103.91,0,0,1,20.33,18.79Z" transform="translate(-165.33 -185.68)"/><path class="cls-1" d="M596.69,243.79l-33.16,0a59.69,59.69,0,0,1-5.6-4.86,40.9,40.9,0,0,1-5-6h10.42c-5.61-4.55-10.19-6.83-13.85-6.83-2.45,0-3.2,1.22-2.38,3.67s3,5.58,6.75,9.4a58.35,58.35,0,0,0,11.94,9.66c4.13,2.46,7.66,3.69,10.49,3.69,2.29,0,3.32-1.16,3-3.46q14.76,7.87,30.66,15.72c-1.08,4.8-6.11,7.22-14.37,7.23-10.08,0-21.58-3-33.56-9.11a90.32,90.32,0,0,1-28.93-22.73c-7.56-9-11.11-16.62-11.63-22.83s2.22-9.31,9.07-9.31,15.49,3.05,27.3,9.11a185.22,185.22,0,0,1,34,22.36C592.86,240.39,594.5,241.82,596.69,243.79Z" transform="translate(-165.33 -185.68)"/><path class="cls-2" d="M165.33,167.68" transform="translate(-165.33 -185.68)"/><path class="cls-2" d="M165.33,131.68" transform="translate(-165.33 -185.68)"/><path class="cls-2" d="M147.33,185.68" transform="translate(-165.33 -185.68)"/><path class="cls-2" d="M111.33,185.68" transform="translate(-165.33 -185.68)"/><path class="cls-2" d="M147.33,272.11" transform="translate(-165.33 -185.68)"/><path class="cls-2" d="M111.33,272.11" transform="translate(-165.33 -185.68)"/><path class="cls-2" d="M165.33,290.11" transform="translate(-165.33 -185.68)"/><path class="cls-2" d="M165.33,326.11" transform="translate(-165.33 -185.68)"/><path class="cls-2" d="M609.91,167.68" transform="translate(-165.33 -185.68)"/><path class="cls-2" d="M609.91,131.68" transform="translate(-165.33 -185.68)"/><path class="cls-2" d="M627.91,185.68" transform="translate(-165.33 -185.68)"/><path class="cls-2" d="M663.91,185.68" transform="translate(-165.33 -185.68)"/><path class="cls-2" d="M627.91,272.11" transform="translate(-165.33 -185.68)"/><path class="cls-2" d="M663.91,272.11" transform="translate(-165.33 -185.68)"/><path class="cls-2" d="M609.91,290.11" transform="translate(-165.33 -185.68)"/><path class="cls-2" d="M609.91,326.11" transform="translate(-165.33 -185.68)"/><path class="cls-1" d="M470.52,301.32" transform="translate(-165.33 -185.68)"/></svg>